<?xml version="1.0" standalone="no"?><!DOCTYPE svg PUBLIC "-//W3C//DTD SVG 1.1//EN" "http://www.w3.org/Graphics/SVG/1.1/DTD/svg11.dtd"><svg t="1516042851479" class="icon" style="" viewBox="0 0 1024 1024" version="1.1" xmlns="http://www.w3.org/2000/svg" p-id="1120" xmlns:xlink="http://www.w3.org/1999/xlink" width="200" height="200"><defs><style type="text/css"></style></defs><path d="M622.08 490.496c-3.584-6.656-6.144-13.312-8.192-19.968-13.312-0.512-33.28-0.512-40.448 0-10.752 1.024-63.488-2.56-63.488-2.56s-52.736 3.584-63.488 2.56c-6.144-0.512-23.04-0.512-35.84 0-2.048 6.656-4.608 13.312-8.704 20.48-25.088 46.592-66.048 119.808-71.68 153.6C324.096 677.888 245.76 865.28 260.608 870.4c5.12 1.536 51.2 10.24 86.528 10.24l-1.024 9.728s32.768 2.56 49.152 7.68c16.384 5.12 68.608 8.704 77.312 5.12 5.632-2.56 17.92-4.608 30.208-4.608v1.536c2.048-0.512 4.096-1.024 6.656-1.536 4.096 0.512 7.68 1.024 11.264 1.536v-2.56c12.288 0 24.576 2.048 30.208 4.608 8.704 3.584 60.416 0 77.312-5.12 16.384-5.12 49.152-7.68 49.152-7.68l-1.024-9.728c35.328 0 81.408-8.704 86.528-10.24 14.848-5.12-63.488-192.512-69.12-226.304-6.144-33.28-46.592-105.984-71.68-152.576zM390.144 133.12c-28.16 4.096-63.488 23.04-75.264 25.088 0 0 12.288 34.816 19.456 45.568 7.68 10.752 10.24 25.6 13.312 37.376 3.072 12.288 10.752 35.84 10.752 45.056 0 9.216 27.648-0.512 32.768 20.992 5.12 21.504 8.704 16.384 13.824 54.784 2.56 20.992 8.704 43.52 9.728 67.072 9.728 0 23.04-1.024 31.232-2.048 13.824-2.56 62.976 0 62.976 0s49.152-2.56 62.976 0c9.728 1.536 26.624 2.048 35.84 2.048 1.024-23.552 7.168-46.08 9.728-67.584 5.12-38.912 8.704-33.28 13.824-54.784 5.12-21.504 32.768-11.776 32.768-20.992 0-9.216 8.192-32.768 10.752-45.056 3.072-12.288 5.632-26.624 13.312-37.376 7.68-10.752 19.456-45.568 19.456-45.568-11.776-1.536-46.592-20.992-75.264-25.088-28.16-4.096-53.76-13.312-53.76-13.312 1.536 9.728-8.704 16.896-14.848 32.768-6.144 16.384-14.848 27.648-22.528 44.544-7.68 16.896-23.552 41.472-30.72 44.032v0.512c-7.168-2.56-23.04-27.136-30.208-44.032-7.68-16.896-16.384-28.16-22.528-44.544-6.144-16.384-16.896-23.04-14.848-32.768 1.024 0-24.576 9.216-52.736 13.312z" p-id="1121" fill="#d4237a"></path></svg>